<?xml version="1.0" encoding="UTF-8"?><svg xmlns="http://www.w3.org/2000/svg" viewBox="0 0 270.11 35.85"><defs><style>.d{fill:#fff;}</style></defs><g id="a"/><g id="b"><g id="c"><g><g><g><path class="d" d="M5.44,4.49v11.61h15.09v4.09H5.44v15.04H0V.4H21.49V4.49H5.44Z"/><path class="d" d="M37.25,35.85c-7.97,0-14.14-5.55-14.14-13.86s6.17-13.91,14.14-13.91,14.08,5.67,14.08,13.91-6.17,13.86-14.08,13.86Zm0-23.39c-5.39,0-8.69,4.15-8.69,9.37s3.31,9.42,8.69,9.42,8.64-4.15,8.64-9.42-3.31-9.37-8.64-9.37Z"/><path class="d" d="M66.96,35.85c-7.18,0-13.46-5.39-13.46-13.91s6.56-13.86,13.63-13.86,10.04,3.48,10.32,3.81l-1.91,3.93c-.9-.9-3.25-3.25-7.97-3.25s-8.64,3.59-8.64,9.2,3.48,9.48,8.64,9.48,8.13-3.37,8.13-3.37l1.91,3.93c-.79,.79-3.53,4.04-10.66,4.04Z"/><path class="d" d="M97.75,35.23l-.06-3.81c-1.46,2.58-4.49,4.43-8.25,4.43-7.4,0-9.37-4.71-9.37-11.33V8.53h5.33v15.76c0,3.65,.79,7.07,5.55,7.07s6.62-4.04,6.62-8.53V8.53h5.39v26.7h-5.22Z"/><path class="d" d="M116.01,35.85c-4.49,0-8.13-1.85-10.38-4.77l2.58-3.14c2.24,2.36,5.39,3.81,7.85,3.81s5.1-.9,5.1-3.81-4.21-3.81-6-4.43c-3.93-1.35-7.85-2.75-7.85-7.8s4.26-7.63,8.98-7.63,7.4,1.68,9.09,3.48l-2.24,3.31c-1.57-1.63-4.15-2.86-6.73-2.86s-4.26,1.12-4.26,3.31,2.58,3.14,5.22,3.98c1.46,.5,2.47,.84,3.59,1.29,2.97,1.23,5.22,3.37,5.22,6.84,0,5.72-4.99,8.41-10.15,8.41Z"/></g><path class="d" d="M131.84,16.73c-1.83,0-3.14-1.17-3.14-2.95s1.31-2.95,3.14-2.95,3.09,1.17,3.09,2.95-1.31,2.95-3.09,2.95Zm0,18.55c-1.83,0-3.14-1.12-3.14-2.9s1.31-2.95,3.14-2.95,3.09,1.12,3.09,2.95-1.31,2.9-3.09,2.9Z"/><path class="d" d="M169.81,35.24v-14.57h-13.96v14.57h-8.17V.46h8.17V13.92h13.96V.46h8.17V35.24h-8.17Z"/><path class="d" d="M231.52,22.39h-4.28v12.85h-8.17V.46h12.45c7.11,0,12.7,3.18,12.7,10.94s-5.6,10.99-12.7,10.99Zm-1.16-15.63h-3.18v9.32h3.18c3.18,0,5.6-1.11,5.6-4.69s-2.47-4.64-5.6-4.64Z"/><path class="d" d="M247.13,35.24V.46h22.53V6.97h-14.42v7.11h13.61v6.5h-13.61v8.06h14.87v6.6h-22.98Z"/></g><path class="d" d="M213.88,20.7s-.11-.02-.19-.01c-.38,.01-3.25,.53-3.75,.68-.5,.15-1.62,.73-2.23,1-.47,.21-2.18,1.14-2.5,1.15-.18,0-.32-.06-.43-.19-.08-.1-.1-.22-.08-.34,.07-.32,.5-.69,1.27-1.1l.25-.13c.52-.28,2.12-1.11,2-1.36,0,0-.02,0-.08,0-.39,.01-1.67,.4-2.69,.72-.31,.09-.6,.18-.85,.26-.85,.25-1.52,.39-1.97,.4-.48,.02-.74-.1-.77-.35-.07-.51,.69-.83,1.42-1.13l.27-.11c.28-.12,.77-.26,1.29-.41,.68-.2,1.81-.52,1.83-.68,0,0-.07-.09-.73-.07-.74,.03-1.8,.17-2.37,.24,0,0-.36,.05-.48,.07-.31,.05-.67,.1-1.01,.11-.17,0-.32,0-.45-.02-.4-.06-.62-.23-.66-.53-.07-.56,.7-.76,1.47-.88,.17-.03,.35-.05,.51-.07,.22-.03,.43-.05,.59-.09,.22-.04,.58-.1,.97-.15,.83-.12,2.21-.33,2.28-.51-.25-.25-1.81-.25-2.74-.24-.3,0-.55,0-.72,0h-.11c-.12,0-.24,0-.36,0-.68,.01-1.38,.03-1.47-.65-.02-.13,.02-.25,.1-.35,.26-.31,.96-.4,1.5-.42,.21,0,.36,0,.36,0l.73-.03c.13,0,.38,0,.7,0,.42,0,1.57-.04,2.13-.04,.25,0,2.38,.11,2.61-.54,.14-.42-.8-1.08-1.32-1.44-.1-.07-.18-.12-.22-.16l-.08-.06c-.51-.34-1.05-1.32-.65-1.72,.14-.14,.3-.2,.39-.2,.02,0,.03,0,.04,0,.03,.02,2.51,1.6,3.47,2.32,.6,.45,1.12,.91,1.63,1.36,.32,.28,.63,.56,.95,.82l.09,.07c.73,.6,1.48,.72,2.76,1.07-.48-9.47-8.31-17-17.9-17s-17.92,8.02-17.92,17.92,8.02,17.92,17.92,17.92c8.76,0,16.04-6.28,17.61-14.58-.69-.19-1.52-.36-2.01-.47-.21-.04-.36-.08-.43-.09Zm-15.16-2.78c2.07,3.82,3.13,11.62-3.43,12.98-5.42,1.12-11.03-3-12.28-10.03,.13-.03,.25-.05,.36-.08,.21-.04,.36-.08,.43-.09,.04-.01,.11-.02,.19-.01,.38,.01,3.25,.53,3.75,.68,.5,.15,1.62,.73,2.23,1,.47,.21,2.18,1.14,2.5,1.15,.18,0,.32-.06,.43-.19,.08-.1,.1-.22,.08-.34-.07-.32-.5-.69-1.27-1.1l-.25-.13c-.52-.28-2.12-1.11-2-1.36,0,0,.02,0,.08,0,.39,.01,1.67,.4,2.69,.72,.31,.09,.6,.18,.85,.26,.85,.25,1.52,.39,1.97,.4,.48,.02,.74-.1,.77-.35,.07-.51-.69-.83-1.42-1.13l-.27-.11c-.28-.12-.77-.26-1.29-.41-.68-.2-1.81-.52-1.83-.68,0,0,.07-.09,.73-.07,.74,.03,1.8,.17,2.37,.24,0,0,.36,.05,.48,.07,.31,.05,.67,.1,1.01,.11,.17,0,.32,0,.45-.02,.4-.06,.62-.23,.66-.53,.07-.56-.7-.76-1.47-.88-.17-.03-.35-.05-.51-.07-.22-.03-.43-.05-.59-.09-.22-.04-.58-.1-.97-.15-.83-.12-2.21-.33-2.28-.51,.25-.25,1.81-.25,2.74-.24,.3,0,.55,0,.72,0h.11c.12,0,.24,0,.36,0,.68,.01,1.38,.03,1.47-.65,.02-.13-.02-.25-.1-.35-.26-.31-.96-.4-1.5-.42-.21,0-.36,0-.36,0l-.73-.03c-.13,0-.38,0-.7,0-.42,0-1.57-.04-2.13-.04-.25,0-2.38,.11-2.61-.54-.14-.42,.8-1.08,1.32-1.44,.1-.07,.18-.12,.22-.16l.08-.06c.51-.34,1.05-1.32,.65-1.72-.14-.14-.3-.2-.39-.2-.02,0-.03,0-.04,0-.03,.02-2.51,1.6-3.47,2.32-.6,.45-1.12,.91-1.63,1.36-.32,.28-.63,.56-.95,.82l-.09,.07c-.32,.26-.64,.43-1,.57,.73-8.77,8.19-14.53,15.87-14.53,6.23,0,10.03,3.48,9.93,3.65-.07,.12-.29,.02-.29,.02-1.7-.55-4.72-.93-7.49,.71-5.03,2.97-4.15,7.84-2.13,11.57Z"/></g></g></g></svg>